<svg width="512" height="512" viewBox="0 0 512 512" fill="none" xmlns="http://www.w3.org/2000/svg" role="img" aria-label="SolarLink icon">
  <defs>
    <linearGradient id="bg" x1="64" y1="48" x2="448" y2="464" gradientUnits="userSpaceOnUse">
      <stop offset="0" stop-color="#0EA5E9"/>
      <stop offset="1" stop-color="#22C55E"/>
    </linearGradient>
    <linearGradient id="panel" x1="132" y1="300" x2="380" y2="430" gradientUnits="userSpaceOnUse">
      <stop offset="0" stop-color="#0F172A"/>
      <stop offset="1" stop-color="#1E293B"/>
    </linearGradient>
  </defs>

  <rect x="32" y="32" width="448" height="448" rx="96" fill="url(#bg)"/>

  <circle cx="356" cy="152" r="46" fill="#FDE047"/>
  <g stroke="#FDE047" stroke-width="10" stroke-linecap="round">
    <line x1="356" y1="76" x2="356" y2="56"/>
    <line x1="356" y1="248" x2="356" y2="228"/>
    <line x1="280" y1="152" x2="260" y2="152"/>
    <line x1="452" y1="152" x2="432" y2="152"/>
    <line x1="303" y1="99" x2="288" y2="84"/>
    <line x1="424" y1="220" x2="409" y2="205"/>
    <line x1="303" y1="205" x2="288" y2="220"/>
    <line x1="424" y1="84" x2="409" y2="99"/>
  </g>

  <path d="M256 450C256 450 154 350 154 264C154 199 206 148 271 148C336 148 388 199 388 264C388 350 286 450 286 450H256Z" fill="#FFFFFF" fill-opacity="0.92"/>

  <g transform="rotate(-12 256 324)">
    <rect x="128" y="278" width="256" height="130" rx="14" fill="url(#panel)" stroke="#E2E8F0" stroke-width="6"/>
    <g stroke="#334155" stroke-width="4">
      <line x1="128" y1="322" x2="384" y2="322"/>
      <line x1="128" y1="366" x2="384" y2="366"/>
      <line x1="192" y1="278" x2="192" y2="408"/>
      <line x1="256" y1="278" x2="256" y2="408"/>
      <line x1="320" y1="278" x2="320" y2="408"/>
    </g>
  </g>

  <path d="M206 446H306" stroke="#FFFFFF" stroke-opacity="0.9" stroke-width="12" stroke-linecap="round"/>
</svg>
